<!DOCTYPE svg PUBLIC "-//W3C//DTD SVG 1.1//EN" "http://www.w3.org/Graphics/SVG/1.1/DTD/svg11.dtd">
<!-- Uploaded to: SVG Repo, www.svgrepo.com, Transformed by: SVG Repo Mixer Tools -->
<svg fill="#ffffff" width="800px" height="800px" viewBox="0 0 32 32" version="1.1" xmlns="http://www.w3.org/2000/svg">
<g id="SVGRepo_bgCarrier" stroke-width="0"/>
<g id="SVGRepo_tracerCarrier" stroke-linecap="round" stroke-linejoin="round"/>
<g id="SVGRepo_iconCarrier"> <title>cannon-shot</title> <path d="M31.383 18.99c-7.741-0.316-8.798-2.779-1.365-6.405-3.192 0.339-5.849 0.846-8.052 1.669 1.075-1.896 1.393-3.484 0.681-4.197-0.22-0.22-0.524-0.341-0.894-0.373l-6.61-8.974h-4.606l8.494 9.672-0.067 0.078c-1.524 0.775-3.296 2.089-4.993 3.786-0.209 0.209-0.412 0.419-0.609 0.629l-12.219-10.874v12.48l8.278 5.661c0.045 0.318 0.163 0.582 0.36 0.778 0.738 0.737 2.413 0.371 4.398-0.797-0.86 2.298-1.425 5.139-1.772 8.66 2.341-8.055 5.044-6.828 7.147-0.392-1.162-6.837 6.201-3.845 11.544 0.337-4.144-6.351-7.776-11.077 0.284-11.739zM12.498 20.393c-0.003-0.003-0.006-0.007-0.009-0.011-0.346-0.363-0.238-1.112 0.219-2.033 0-0.001 0.001-0.002 0.001-0.002 0.028-0.057 0.058-0.114 0.088-0.172 0.002-0.003 0.004-0.007 0.006-0.011 0.030-0.055 0.060-0.111 0.092-0.167 0.003-0.006 0.007-0.012 0.010-0.018 0.031-0.054 0.062-0.109 0.095-0.163 0.005-0.008 0.010-0.017 0.015-0.025 0.032-0.053 0.064-0.106 0.098-0.16 0.007-0.011 0.015-0.023 0.022-0.034 0.032-0.051 0.065-0.102 0.099-0.154 0.009-0.014 0.019-0.028 0.028-0.042 0.033-0.049 0.066-0.098 0.1-0.148 0.012-0.017 0.024-0.034 0.036-0.051 0.033-0.047 0.065-0.094 0.099-0.141 0.014-0.020 0.030-0.040 0.044-0.061 0.032-0.044 0.065-0.089 0.098-0.133 0.017-0.022 0.034-0.044 0.051-0.066 0.033-0.043 0.065-0.086 0.099-0.129 0.019-0.025 0.039-0.050 0.059-0.074 0.032-0.041 0.064-0.081 0.097-0.122 0.022-0.027 0.046-0.055 0.068-0.083 0.031-0.038 0.063-0.076 0.095-0.115 0.026-0.031 0.053-0.062 0.080-0.093 0.030-0.035 0.059-0.070 0.090-0.105s0.063-0.071 0.094-0.107c0.027-0.031 0.054-0.061 0.082-0.092 0.035-0.038 0.071-0.077 0.106-0.115 0.026-0.028 0.050-0.055 0.076-0.083 0.043-0.046 0.088-0.093 0.132-0.139 0.019-0.020 0.037-0.039 0.056-0.059 0.064-0.066 0.128-0.132 0.194-0.198s0.132-0.13 0.197-0.194c0.021-0.020 0.042-0.040 0.064-0.060 0.045-0.043 0.090-0.086 0.135-0.128 0.026-0.025 0.053-0.049 0.079-0.073 0.040-0.037 0.079-0.073 0.119-0.109 0.031-0.028 0.063-0.056 0.094-0.084 0.035-0.031 0.069-0.062 0.104-0.092 0.036-0.031 0.072-0.061 0.107-0.092 0.030-0.026 0.061-0.052 0.091-0.078 0.039-0.033 0.079-0.065 0.118-0.097 0.027-0.022 0.053-0.044 0.080-0.066 0.042-0.034 0.084-0.067 0.126-0.1 0.024-0.019 0.047-0.038 0.071-0.056 0.044-0.035 0.089-0.068 0.133-0.102 0.021-0.016 0.042-0.032 0.063-0.048 0.047-0.035 0.093-0.069 0.14-0.103 0.018-0.013 0.036-0.027 0.054-0.040 0.048-0.035 0.096-0.068 0.144-0.102 0.016-0.011 0.032-0.023 0.048-0.034 0.050-0.035 0.1-0.068 0.15-0.102 0.013-0.009 0.026-0.018 0.039-0.027 0.053-0.035 0.105-0.068 0.157-0.101 0.010-0.006 0.020-0.013 0.030-0.019 0.054-0.034 0.108-0.067 0.162-0.099 0.008-0.005 0.015-0.009 0.023-0.014 0.056-0.034 0.112-0.066 0.167-0.097 0.005-0.003 0.010-0.006 0.014-0.008 0.057-0.032 0.114-0.063 0.17-0.093 0.003-0.001 0.006-0.003 0.008-0.005 0.058-0.031 0.116-0.061 0.173-0.089 0-0 0.001-0 0.001-0.001 0.92-0.457 1.669-0.565 2.032-0.22 0.004 0.004 0.008 0.006 0.012 0.010 0.427 0.427 0.195 1.415-0.511 2.591-1.825 1.066-3.246 2.491-4.342 4.412-1.255 0.792-2.325 1.071-2.773 0.623z"/> </g>
</svg>