<!DOCTYPE svg PUBLIC "-//W3C//DTD SVG 1.1//EN" "http://www.w3.org/Graphics/SVG/1.1/DTD/svg11.dtd">
<!-- Uploaded to: SVG Repo, www.svgrepo.com, Transformed by: SVG Repo Mixer Tools -->
<svg width="800px" height="800px" viewBox="0 0 512 512" xmlns="http://www.w3.org/2000/svg" fill="#ffffff" stroke="#ffffff">
<g id="SVGRepo_bgCarrier" stroke-width="0"/>
<g id="SVGRepo_tracerCarrier" stroke-linecap="round" stroke-linejoin="round"/>
<g id="SVGRepo_iconCarrier">
<path fill="#ffffff" d="M130.72 61C106 61.11 106 62.875 106 91H76l-15 30v60l15 30h30c0 30 0 30 30 30h120c30 0 30 0 30-30h15l15-30h180v-60H316l-15-30h-15c0-30 0-30-30-30H136c-1.875 0-3.633-.007-5.28 0zM166 271a15 15 0 0 0-15 15v45a15 15 0 0 0 15 15h60a15 15 0 0 0 15-15v-45a15 15 0 0 0-15-15h-60zm-15 105c-30 0-45 30-45 30-15 0-30 0-30 15l-60 15v15h360v-15l-60-15c0-15-15-15-30-15 0 0-15-30-45-30h-90z"/>
</g>
</svg>