<!DOCTYPE svg PUBLIC "-//W3C//DTD SVG 1.1//EN" "http://www.w3.org/Graphics/SVG/1.1/DTD/svg11.dtd">
<!-- Uploaded to: SVG Repo, www.svgrepo.com, Transformed by: SVG Repo Mixer Tools -->
<svg fill="#ffffff" height="800px" width="800px" version="1.1" id="Layer_1" xmlns="http://www.w3.org/2000/svg" xmlns:xlink="http://www.w3.org/1999/xlink" viewBox="0 0 512 512" xml:space="preserve">
<g id="SVGRepo_bgCarrier" stroke-width="0"/>
<g id="SVGRepo_tracerCarrier" stroke-linecap="round" stroke-linejoin="round"/>
<g id="SVGRepo_iconCarrier"> <g> <g> <path d="M477.63,356.021c-2.085-4.814-4.843-9.204-8.162-13.077l8.507-111.418L357.117,90.613h-35.985 c2.316-6.878,3.591-14.229,3.591-21.877C324.722,30.835,293.887,0,255.986,0c-37.9,0-68.735,30.835-68.735,68.736 c0,7.648,1.274,15,3.591,21.877h-35.985L33.996,231.528l8.511,111.47c-11.984,14.019-16.04,34.046-8.796,52.359 c3.518,8.892,9.529,16.643,17.379,22.414l19.777-26.904c-2.828-2.079-4.882-4.702-6.105-7.792 c-3.652-9.233,0.888-19.714,10.12-23.366c9.235-3.65,19.714,0.888,23.365,10.12c1.223,3.093,1.519,6.411,0.878,9.86l32.829,6.098 c1.78-9.58,0.86-19.345-2.657-28.24c-3.07-7.761-7.839-14.348-13.702-19.531l15.821-75.484l33.369-31.58l15.327,98.97h-26.534 l4.444,148.688h-11.64V512H365.59v-33.391h-11.64l4.444-148.69h-26.534l15.327-98.97l33.369,31.581l15.814,75.45 c-5.976,5.286-10.675,11.932-13.694,19.565c-3.518,8.894-4.438,18.661-2.657,28.242l32.828-6.099 c-0.64-3.45-0.346-6.766,0.878-9.859c1.77-4.472,5.173-7.987,9.586-9.899c4.413-1.911,9.305-1.988,13.779-0.22 c4.472,1.77,7.988,5.173,9.899,9.587c1.912,4.413,1.99,9.305,0.22,13.778c-1.224,3.092-3.277,5.714-6.104,7.792l19.774,26.907 c7.854-5.772,13.863-13.522,17.38-22.417C483.31,382.588,483.087,368.62,477.63,356.021z M84.176,325.139 c-3.149-0.167-6.332-0.051-9.515,0.376l-5.065-66.343l26.943,6.984L84.176,325.139z M111.386,235.511l-30.12-7.808l70.319-81.987 l6.99,45.135L111.386,235.511z M255.986,33.391c19.489,0,35.345,15.855,35.345,35.345c0,19.488-15.855,35.344-35.345,35.344 c-19.488,0-35.344-15.855-35.344-35.344C220.642,49.247,236.497,33.391,255.986,33.391z M212.587,478.609h-21.16l-3.445-115.299 h28.053L212.587,478.609z M245.994,478.609l2.744-91.799h14.496l2.745,91.799H245.994z M320.544,478.609h-21.16l-3.446-115.299 h28.052L320.544,478.609z M298.071,329.918h-36.537l0.702,23.5h-12.501l0.702-23.5H213.9l-31.889-205.914h33.165 c11.421,8.456,25.539,13.467,40.809,13.467s29.388-5.011,40.809-13.467h33.165L298.071,329.918z M400.587,235.512l-47.19-44.661 l6.99-45.134l70.319,81.987L400.587,235.512z M437.313,325.495c-3.163-0.432-6.349-0.555-9.524-0.388l-12.355-58.949l26.942-6.984 L437.313,325.495z"/> </g> </g> </g>
</svg>